<?xml version="1.0" encoding="UTF-8" standalone="no"?>
<svg width="143px" height="143px" viewBox="0 0 143 143" version="1.1" xmlns="http://www.w3.org/2000/svg" xmlns:xlink="http://www.w3.org/1999/xlink" xmlns:sketch="http://www.bohemiancoding.com/sketch/ns">
    <!-- Generator: Sketch 3.3 (11970) - http://www.bohemiancoding.com/sketch -->
    <title>Artboard 1 Copy</title>
    <desc>Created with Sketch.</desc>
    <defs></defs>
    <g id="Page-1" stroke="none" stroke-width="1" fill="none" fill-rule="evenodd" sketch:type="MSPage">
        <g id="Artboard-1-Copy" sketch:type="MSArtboardGroup" fill="#000000">
            <g id="Group" sketch:type="MSLayerGroup" transform="translate(26.000000, 0.000000)">
                <path d="M16.927,87.505 C12.443,59.033 7.96,30.561 3.476,2.089 C2.951,2.779 2.425,3.468 1.9,4.158 L89.083,4.158 C88.558,3.468 88.032,2.779 87.507,2.089 C83.056,30.561 78.605,59.033 74.155,87.505 C74.68,87.105 75.206,86.705 75.731,86.305 L15.351,86.305 C13.243,86.305 13.243,89.574 15.351,89.574 L75.731,89.574 C76.395,89.574 77.196,89.081 77.307,88.374 C81.758,59.902 86.209,31.43 90.659,2.958 C90.82,1.926 90.236,0.889 89.083,0.889 L1.9,0.889 C0.748,0.889 0.162,1.926 0.324,2.958 C4.808,31.43 9.291,59.902 13.775,88.374 C14.102,90.451 17.251,89.566 16.927,87.505 L16.927,87.505 Z" id="Shape" sketch:type="MSShapeGroup"></path>
                <path d="M14.097,89.389 C16.792,92.757 18.607,97.231 23.173,97.231 L44.895,97.231 L67.163,97.231 C68.179,97.231 70.137,97.586 70.877,96.655 C72.88,94.135 74.883,91.615 76.887,89.095 C78.184,87.463 75.887,85.134 74.576,86.784 C72.758,89.071 70.94,91.358 69.122,93.646 C67.981,95.081 70.159,93.964 69.224,93.964 L66.673,93.964 L45.893,93.964 L24.645,93.964 L22.073,93.964 C20.374,93.964 22.238,94.365 22.013,94.085 C20.145,91.75 18.277,89.415 16.408,87.079 C15.091,85.432 12.794,87.761 14.097,89.389 L14.097,89.389 L14.097,89.389 Z" id="Shape" sketch:type="MSShapeGroup"></path>
                <path d="M21.929,111.958 L69.055,111.958 C71.163,111.958 71.163,108.689 69.055,108.689 L21.929,108.689 C19.821,108.69 19.821,111.958 21.929,111.958 L21.929,111.958 L21.929,111.958 Z" id="Shape" sketch:type="MSShapeGroup"></path>
                <path d="M20.098,95.597 C20.163,105.415 20.229,115.233 20.294,125.051 C20.3,125.942 21.033,126.685 21.928,126.685 L69.054,126.685 C69.958,126.685 70.671,125.941 70.688,125.051 C70.884,115.233 71.081,105.415 71.277,95.597 C71.319,93.488 68.05,93.492 68.008,95.597 C67.812,105.415 67.615,115.233 67.419,125.051 C67.964,124.506 68.509,123.961 69.053,123.417 L21.927,123.417 C22.472,123.962 23.017,124.507 23.561,125.051 C23.496,115.233 23.43,105.415 23.365,95.597 C23.353,93.49 20.084,93.489 20.098,95.597 L20.098,95.597 L20.098,95.597 Z" id="Shape" sketch:type="MSShapeGroup"></path>
                <path d="M21.136,126.468 C25.554,130.461 29.973,134.454 34.391,138.447 C35.76,139.684 37.168,141.425 38.776,142.367 C40.486,143.368 44.222,142.59 46.081,142.59 C47.94,142.59 51.676,143.368 53.386,142.367 C54.947,141.452 56.295,139.625 57.58,138.386 C61.79,134.326 66,130.266 70.211,126.207 C71.731,124.742 69.417,122.433 67.9,123.896 C64.114,127.547 60.328,131.198 56.542,134.848 C54.882,136.449 53.222,138.05 51.561,139.651 C52.013,139.216 52.939,139.322 51.213,139.322 L46.081,139.322 L41.626,139.322 L39.964,139.322 C38.954,139.322 41.161,140.166 40.594,139.653 C38.852,138.078 37.109,136.504 35.367,134.929 C31.394,131.338 27.421,127.748 23.448,124.157 C21.888,122.748 19.569,125.052 21.136,126.468 L21.136,126.468 L21.136,126.468 Z" id="Shape" sketch:type="MSShapeGroup"></path>
            </g>
        </g>
    </g>
</svg>