<?xml version="1.0" encoding="utf-8"?>
<!-- Generator: Adobe Illustrator 18.0.0, SVG Export Plug-In . SVG Version: 6.00 Build 0)  -->
<!DOCTYPE svg PUBLIC "-//W3C//DTD SVG 1.1//EN" "http://www.w3.org/Graphics/SVG/1.1/DTD/svg11.dtd">
<svg version="1.1" id="Layer_2" xmlns="http://www.w3.org/2000/svg" xmlns:xlink="http://www.w3.org/1999/xlink" x="0px" y="0px"
	 viewBox="0 0 100 100" enable-background="new 0 0 100 100" xml:space="preserve">
<g>
	<g>
		<path fill="#FFFFFF" d="M38.3,69.9c-0.4,0.2-0.8,0.3-1.2,0.3c0,0,0,0-0.1,0c-4.6,0.3-9.1,0.7-13.7,1c-1.9,0.1-3.3-2.3-2.2-3.9
			c2.6-3.6,5.2-7.2,7.8-10.8c0.5-0.8,1.2-1.3,2.2-1.3c0.9,0,1.7,0.5,2.2,1.3c2,3.3,3.9,6.5,5.9,9.8c0.2,0.3,0.3,0.7,0.3,1
			c0,0.1,0,0.2,0,0.3c0,0.6-0.2,1.1-0.5,1.5C38.9,69.4,38.6,69.7,38.3,69.9z"/>
	</g>
	<g>
		<path fill="#FFFFFF" d="M83.5,43.5c-0.6,0.4-1.2,0.7-1.9,1.1c-7,4.1-13.9,8.2-20.9,12.2c-5.1,3-10.1,5.9-15.2,8.9
			c-0.5,0.3-1.1,0.4-1.7,0.3c-0.7-0.1-1.4-0.5-1.8-1.2c-2-3.4-3.9-6.8-5.9-10.3c-0.7-1.2-0.3-2.8,0.9-3.5c0.6-0.4,1.2-0.7,1.9-1.1
			c7-4.1,13.9-8.2,20.9-12.2c5.1-3,10.1-5.9,15.2-8.9c1.2-0.7,2.8-0.3,3.5,0.9c2,3.4,3.9,6.8,5.9,10.3
			C85.1,41.2,84.7,42.8,83.5,43.5z"/>
	</g>
</g>
</svg>
