<?xml version="1.0" encoding="UTF-8" standalone="no"?>
<svg width="143px" height="143px" viewBox="0 0 143 143" version="1.1" xmlns="http://www.w3.org/2000/svg" xmlns:xlink="http://www.w3.org/1999/xlink" xmlns:sketch="http://www.bohemiancoding.com/sketch/ns">
    <!-- Generator: Sketch 3.3 (11970) - http://www.bohemiancoding.com/sketch -->
    <title>Artboard 1</title>
    <desc>Created with Sketch.</desc>
    <defs></defs>
    <g id="Page-1" stroke="none" stroke-width="1" fill="none" fill-rule="evenodd" sketch:type="MSPage">
        <g id="Artboard-1" sketch:type="MSArtboardGroup" fill="#000000">
            <path d="M126.862085,111.321652 C129.799085,101.235652 123.581085,92.3336523 114.978085,87.5896523 C102.382085,80.6436523 84.8570847,79.9106523 70.8010847,80.0076523 C59.0970847,80.0886523 47.3550847,81.6766523 36.1710847,85.1586523 C30.1400847,87.0366523 22.4530847,89.3076523 18.4130847,94.5736523 C13.3370847,101.190652 15.6020847,109.950652 18.4590847,116.866652 C21.3740847,123.921652 24.2890847,130.977652 27.2040847,138.032652 C27.4870847,138.717652 27.9840847,139.232652 28.7800847,139.232652 C57.8410847,139.232652 86.9024125,139.305714 115.963085,139.232652 C116.76485,139.230637 117.030963,139.036835 117.539085,138.033652 C120.641085,129.165652 124.235085,120.340652 126.862085,111.321652 Z" id="Shape" sketch:type="MSShapeGroup"></path>
        </g>
    </g>
</svg>