<?xml version="1.0" encoding="UTF-8" standalone="no"?>
<svg width="143px" height="143px" viewBox="0 0 143 143" version="1.1" xmlns="http://www.w3.org/2000/svg" xmlns:xlink="http://www.w3.org/1999/xlink" xmlns:sketch="http://www.bohemiancoding.com/sketch/ns">
    <!-- Generator: Sketch 3.3 (11970) - http://www.bohemiancoding.com/sketch -->
    <title>Artboard 1</title>
    <desc>Created with Sketch.</desc>
    <defs></defs>
    <g id="Page-1" stroke="none" stroke-width="1" fill="none" fill-rule="evenodd" sketch:type="MSPage">
        <g id="Artboard-1" sketch:type="MSArtboardGroup" fill="#000000">
            <path d="M126.862085,115.056528 C129.799085,104.970528 123.581085,96.0685281 114.978085,91.3245281 C102.382085,84.3785281 84.8570847,83.6455281 70.8010847,83.7425281 C59.0970847,83.8235281 47.3550847,85.4115281 36.1710847,88.8935281 C30.1400847,90.7715281 22.4530847,93.0425281 18.4130847,98.3085281 C13.3370847,104.925528 15.6020847,113.685528 18.4590847,120.601528 C21.3740847,127.656528 24.2890847,134.712528 27.2040847,141.767528 C27.4870847,142.452528 27.9840847,142.967528 28.7800847,142.967528 C57.8410847,142.967528 86.9024125,143.04059 115.963085,142.967528 C116.76485,142.965512 117.030963,142.77171 117.539085,141.768528 C120.641085,132.900528 124.235085,124.075528 126.862085,115.056528 Z" id="Shape" sketch:type="MSShapeGroup"></path>
        </g>
    </g>
</svg>