<?xml version="1.0" encoding="UTF-8" standalone="no"?>
<svg width="276px" height="276px" viewBox="0 0 276 276" version="1.1" xmlns="http://www.w3.org/2000/svg" xmlns:xlink="http://www.w3.org/1999/xlink" xmlns:sketch="http://www.bohemiancoding.com/sketch/ns">
    <!-- Generator: Sketch 3.3 (11970) - http://www.bohemiancoding.com/sketch -->
    <title>back</title>
    <desc>Created with Sketch.</desc>
    <defs></defs>
    <g id="Page-1" stroke="none" stroke-width="1" fill="none" fill-rule="evenodd" sketch:type="MSPage">
        <g id="back" sketch:type="MSArtboardGroup" fill="#000000">
            <path d="M266,127.299 L130.504,127.299 L35.504,127.299 C62.828,100.299 90.152,72.651 117.475,45.328 C117.887,44.916 118.299,44.504 118.711,44.092 C127.838,34.965 113.696,20.823 104.569,29.95 L5.179,129.34 C4.767,129.752 4.355,130.164 3.943,130.576 C1.32,133.199 0.626,136.234 1.175,139.014 C1.415,140.931 2.304,142.863 4.051,144.61 C37.181,177.74 70.311,210.87 103.441,244 C103.853,244.412 104.265,244.824 104.677,245.236 C113.804,254.363 127.946,240.221 118.819,231.094 C90.888,203.163 62.957,175.301 35.026,147.301 L147.471,147.301 L266.001,147.301 C279,147.299 279,127.299 266,127.299 L266,127.299 Z" id="Shape" sketch:type="MSShapeGroup"></path>
        </g>
    </g>
</svg>