<?xml version="1.0" encoding="iso-8859-1"?>
<!-- Generator: Adobe Illustrator 18.0.0, SVG Export Plug-In . SVG Version: 6.00 Build 0)  -->
<!DOCTYPE svg PUBLIC "-//W3C//DTD SVG 1.1//EN" "http://www.w3.org/Graphics/SVG/1.1/DTD/svg11.dtd">
<svg version="1.1" id="Layer_1" xmlns="http://www.w3.org/2000/svg" xmlns:xlink="http://www.w3.org/1999/xlink" x="0px" y="0px"
	 viewBox="0 0 313.484 266.987" style="enable-background:new 0 0 313.484 266.987;" xml:space="preserve">
<rect x="637.591" y="-454.496" style="stroke:#FFFFFF;stroke-miterlimit:10;" width="1207.44" height="1027.449"/>
<g>
	<g>
		<g>
			<path style="fill:#FFFFFF;" d="M284.588,164.008c-45.202,0-90.404,0-135.606,0c-40.539,0-81.079,0-121.618,0
				c0.375,0.375,0.75,0.75,1.125,1.125c0-47.541,0-95.082,0-142.622c0-1.134,0-2.267,0-3.401c-0.375,0.375-0.75,0.75-1.125,1.125
				c45.202,0,90.404,0,135.606,0c40.539,0,81.079,0,121.618,0c-0.375-0.375-0.75-0.75-1.125-1.125c0,47.541,0,95.082,0,142.622
				c0,1.134,0,2.267,0,3.401c0,1.451,2.25,1.451,2.25,0c0-47.541,0-95.082,0-142.622c0-1.134,0-2.267,0-3.401
				c0-0.613-0.512-1.125-1.125-1.125c-45.202,0-90.404,0-135.606,0c-40.539,0-81.079,0-121.618,0c-0.613,0-1.125,0.512-1.125,1.125
				c0,47.541,0,95.082,0,142.622c0,1.134,0,2.267,0,3.401c0,0.613,0.512,1.125,1.125,1.125c45.202,0,90.404,0,135.606,0
				c40.539,0,81.079,0,121.618,0C286.039,166.258,286.039,164.008,284.588,164.008z"/>
		</g>
	</g>
	<g>
		<g>
			<path style="fill:#FFFFFF;" d="M287.363,198.485c-44.667,0-89.333,0-134,0c-30.326,0-60.651,0-90.977,0
				c-9.721,0-19.442,0-29.164,0c-6.116,0-14.654,1.565-17.392-5.582c-0.691-1.805-0.343-4.509-0.343-6.396c0-3.949,0-7.898,0-11.847
				c0-13.245,0-26.49,0-39.736c0-31.057,0-62.114,0-93.17c0-8.198,0-16.396,0-24.594c0-4.77,2.617-9.309,8.055-9.309
				c1.473,0,2.947,0,4.42,0c20.986,0,41.971,0,62.957,0c59.146,0,118.293,0,177.439,0c5.965,0,11.93,0,17.896,0
				c9.119,0,8.983,7.663,8.983,14.182c0,26.546,0,53.092,0,79.638c0,20.97,0,41.94,0,62.91c0,6.574,0,13.147,0,19.721
				C295.238,190.345,295.962,197.849,287.363,198.485c-1.438,0.106-1.448,2.357,0,2.25c10.448-0.773,10.125-9.941,10.125-17.694
				c0-11.23,0-22.46,0-33.691c0-31.641,0-63.283,0-94.924c0-10.798,0-21.595,0-32.393c0-7.148-0.313-16.432-10.17-16.432
				c-14.748,0-29.496,0-44.245,0c-60.956,0-121.912,0-182.867,0c-9.393,0-18.787,0-28.18,0c-5.066,0-10.854-0.861-15.127,2.368
				c-5.17,3.907-3.661,13.001-3.661,18.662c0,12.172,0,24.345,0,36.517c0,31.507,0,63.013,0,94.52c0,9.721,0,19.442,0,29.163
				c0,6.902,2.137,13.904,10.622,13.904c47.83,0,95.659,0,143.489,0c40.005,0,80.01,0,120.015,0
				C288.814,200.735,288.814,198.485,287.363,198.485z"/>
		</g>
	</g>
	<g>
		<g>
			<path style="fill:#FFFFFF;" d="M13.863,176.735c43.17,0,86.341,0,129.511,0c50.026,0,100.052,0,150.078,0c0.803,0,1.607,0,2.41,0
				c1.451,0,1.451-2.25,0-2.25c-43.17,0-86.341,0-129.511,0c-50.026,0-100.052,0-150.078,0c-0.804,0-1.607,0-2.411,0
				C12.412,174.485,12.412,176.735,13.863,176.735L13.863,176.735z"/>
		</g>
	</g>
	<g>
		<g>
			<path style="fill:#FFFFFF;" d="M127.988,199.86c-1.053,7.997-2.107,15.995-3.16,23.992c-0.063,0.479-0.126,0.958-0.189,1.438
				c-0.032,0.241,0.673-0.949-0.111-0.208c-1.582,1.497-3.164,2.993-4.746,4.49c-2.905,2.748-5.809,5.495-8.714,8.243
				c-0.721,0.682-0.166,1.92,0.795,1.92c28,0,56,0,84,0c0.968,0,1.507-1.234,0.796-1.92c-2.797-2.697-5.594-5.395-8.392-8.092
				c-1.524-1.469-3.048-2.939-4.571-4.408c-1.28-1.235-0.679-0.112-0.951-1.654c-1.432-8.117-2.865-16.233-4.297-24.35
				c-0.086-0.485-0.621-0.828-1.085-0.826c-16.083,0.083-32.167,0.167-48.25,0.25c-1.451,0.008-1.451,2.258,0,2.25
				c16.048-0.083,32.096-0.166,48.143-0.249c-0.087,0-1.082-1.417-0.902-0.397c0.138,0.783,0.276,1.566,0.415,2.349
				c0.443,2.511,0.886,5.022,1.329,7.533c0.849,4.813,1.699,9.626,2.548,14.439c0.427,2.417,3.697,4.405,5.35,5.998
				c3.024,2.916,6.048,5.832,9.072,8.748c0.265-0.64,0.53-1.28,0.796-1.921c-28,0-56,0-84,0c0.265,0.64,0.53,1.28,0.795,1.921
				c2.905-2.748,5.809-5.495,8.714-8.243c1.635-1.546,5.229-3.694,5.547-6.109c1.106-8.398,2.212-16.796,3.318-25.193
				C130.427,198.424,128.175,198.443,127.988,199.86z"/>
		</g>
	</g>
	<g>
		<g>
			<path style="fill:#FFFFFF;" d="M215.197,133.043c-40.889,0-81.778,0-122.667,0c0.375,0.375,0.75,0.75,1.125,1.125
				c0-26.476,0-52.952,0-79.428c-0.375,0.375-0.75,0.75-1.125,1.125c40.889,0,81.778,0,122.667,0
				c-0.375-0.375-0.75-0.75-1.125-1.125c0,26.476,0,52.952,0,79.428c0,1.451,2.25,1.451,2.25,0c0-26.476,0-52.952,0-79.428
				c0-0.613-0.512-1.125-1.125-1.125c-40.889,0-81.778,0-122.667,0c-0.613,0-1.125,0.512-1.125,1.125c0,26.476,0,52.952,0,79.428
				c0,0.613,0.512,1.125,1.125,1.125c40.889,0,81.778,0,122.667,0C216.648,135.293,216.648,133.043,215.197,133.043z"/>
		</g>
	</g>
	<g>
		<g>
			<path style="fill:#FFFFFF;" d="M215.197,59.926c-40.889,0-81.778,0-122.667,0c0.375,0.375,0.75,0.75,1.125,1.125
				c0-2.104,0-4.207,0-6.311c-0.375,0.375-0.75,0.75-1.125,1.125c40.889,0,81.778,0,122.667,0c-0.375-0.375-0.75-0.75-1.125-1.125
				c0,2.104,0,4.207,0,6.311c0,1.451,2.25,1.451,2.25,0c0-2.104,0-4.207,0-6.311c0-0.613-0.512-1.125-1.125-1.125
				c-40.889,0-81.778,0-122.667,0c-0.613,0-1.125,0.512-1.125,1.125c0,2.104,0,4.207,0,6.311c0,0.613,0.512,1.125,1.125,1.125
				c40.889,0,81.778,0,122.667,0C216.648,62.176,216.648,59.926,215.197,59.926z"/>
		</g>
	</g>
	<g>
		<g>
			<path style="fill:#FFFFFF;" d="M142.238,85.11c0,8,0,16,0,24c0,0.9,0.943,1.339,1.693,0.971c8.167-4,16.333-8,24.5-12
				c0.735-0.36,0.735-1.583,0-1.943c-8.167-4-16.333-8-24.5-12c-1.298-0.636-2.439,1.305-1.136,1.943c8.167,4,16.333,8,24.5,12
				c0-0.648,0-1.295,0-1.943c-8.167,4-16.333,8-24.5,12c0.564,0.324,1.129,0.648,1.693,0.971c0-8,0-16,0-24
				C144.488,83.659,142.238,83.659,142.238,85.11z"/>
		</g>
	</g>
</g>
</svg>
