<?xml version="1.0" encoding="UTF-8" standalone="no"?>
<svg width="143px" height="143px" viewBox="0 0 143 143" version="1.1" xmlns="http://www.w3.org/2000/svg" xmlns:xlink="http://www.w3.org/1999/xlink" xmlns:sketch="http://www.bohemiancoding.com/sketch/ns">
    <!-- Generator: Sketch 3.3 (11970) - http://www.bohemiancoding.com/sketch -->
    <title>Artboard 1 Copy</title>
    <desc>Created with Sketch.</desc>
    <defs></defs>
    <g id="Page-1" stroke="none" stroke-width="1" fill="none" fill-rule="evenodd" sketch:type="MSPage">
        <g id="Artboard-1-Copy" sketch:type="MSArtboardGroup" fill="#000000">
            <path d="M27.5,3.5 L115.5,3.5 L114.513294,2.33748374 L100.513294,87.3374837 L101.5,86.5 L41.5,86.5 L42.4867059,87.3374837 L28.4867059,2.33748374 L27.5,3.5 L27.5,3.5 Z M27.5,1.5 C26.8828332,1.5 26.4129945,2.05355412 26.5132941,2.66251626 L40.5132941,87.6625163 C40.5928557,88.1455689 41.0104391,88.5 41.5,88.5 L101.5,88.5 C101.989561,88.5 102.407144,88.1455689 102.486706,87.6625163 L116.486706,2.66251626 C116.587006,2.05355412 116.117167,1.5 115.5,1.5 L27.5,1.5 L27.5,1.5 Z" id="Shape" sketch:type="MSShapeGroup"></path>
            <path d="M40.693595,88.0913637 L46.193595,95.5913637 C46.3819701,95.8482388 46.6814565,96 47,96 L96,96 C96.3185435,96 96.6180299,95.8482388 96.806405,95.5913637 L102.306405,88.0913637 L100.693595,86.9086363 L95.193595,94.4086363 L96,94 L47,94 L47.806405,94.4086363 L42.306405,86.9086363 L40.693595,88.0913637 L40.693595,88.0913637 Z" id="Shape" sketch:type="MSShapeGroup"></path>
            <path d="M46,95 L46,125 C46,125.552285 46.4477153,126 47,126 L96.0025252,126 C96.5548428,126 97.0025717,125.552233 97.0025252,124.999916 L97,94.9999158 L95,95.0000842 L95.0025252,125.000084 L96.0025252,124 L47,124 L48,125 L48,95 L46,95 L46,95 Z" id="Shape" sketch:type="MSShapeGroup"></path>
            <path d="M48,111 L95,111 L95,109 L48,109 L48,111 L48,111 Z" id="Shape" sketch:type="MSShapeGroup"></path>
            <path d="M46.3356362,125.747409 L64.3356362,141.747409 C64.591408,141.974762 64.9456769,142.055537 65.2747211,141.961524 C65.3722796,141.93365 65.5651393,141.882221 65.8394312,141.815047 C66.3017585,141.701824 66.818161,141.588329 67.3746121,141.482339 C68.9583276,141.180678 70.5392642,141 72,141 C73.4607358,141 75.0416724,141.180678 76.6253879,141.482339 C77.181839,141.588329 77.6982415,141.701824 78.1605688,141.815047 C78.4348607,141.882221 78.6277204,141.93365 78.7252789,141.961524 C79.0640643,142.05832 79.4287891,141.969683 79.6853647,141.7282 L96.6853647,125.7282 L95.3146353,124.2718 L78.3146353,140.2718 L79.2747211,140.038476 C79.1535296,140.00385 78.936233,139.945904 78.6363062,139.872453 C78.1416022,139.751301 77.5915985,139.630421 76.9996121,139.517661 C75.3020776,139.194322 73.6017642,139 72,139 C70.3982358,139 68.6979224,139.194322 67.0003879,139.517661 C66.4084015,139.630421 65.8583978,139.751301 65.3636938,139.872453 C65.063767,139.945904 64.8464704,140.00385 64.7252789,140.038476 L65.6643638,140.252591 L47.6643638,124.252591 L46.3356362,125.747409 L46.3356362,125.747409 Z" id="Shape" sketch:type="MSShapeGroup"></path>
        </g>
    </g>
</svg>