<?xml version="1.0" encoding="utf-8"?>
<!-- Generator: Adobe Illustrator 18.0.0, SVG Export Plug-In . SVG Version: 6.00 Build 0)  -->
<!DOCTYPE svg PUBLIC "-//W3C//DTD SVG 1.1//EN" "http://www.w3.org/Graphics/SVG/1.1/DTD/svg11.dtd">
<svg version="1.1" id="Layer_2" xmlns="http://www.w3.org/2000/svg" xmlns:xlink="http://www.w3.org/1999/xlink" x="0px" y="0px"
	 viewBox="0 0 100 100" enable-background="new 0 0 100 100" xml:space="preserve">
<g>
	<g>
		<path fill="#FFFFFF" d="M76,70.8c0,1.2-1,2.2-2.2,2.2H26.2C25,73,24,72,24,70.8v-6.6c0-1.2,1-2.2,2.2-2.2h47.6
			c1.2,0,2.2,1,2.2,2.2V70.8z"/>
	</g>
	<g>
		<path fill="#FFFFFF" d="M76,52.8c0,1.2-1,2.2-2.2,2.2H26.2C25,55,24,54,24,52.8v-6.6c0-1.2,1-2.2,2.2-2.2h47.6
			c1.2,0,2.2,1,2.2,2.2V52.8z"/>
	</g>
	<g>
		<path fill="#FFFFFF" d="M76,35.8c0,1.2-1,2.2-2.2,2.2H26.2C25,38,24,37,24,35.8v-6.6c0-1.2,1-2.2,2.2-2.2h47.6
			c1.2,0,2.2,1,2.2,2.2V35.8z"/>
	</g>
</g>
</svg>
