<?xml version="1.0" encoding="iso-8859-1"?>
<!-- Generator: Adobe Illustrator 18.0.0, SVG Export Plug-In . SVG Version: 6.00 Build 0)  -->
<!DOCTYPE svg PUBLIC "-//W3C//DTD SVG 1.1//EN" "http://www.w3.org/Graphics/SVG/1.1/DTD/svg11.dtd">
<svg version="1.1" id="Layer_1" xmlns="http://www.w3.org/2000/svg" xmlns:xlink="http://www.w3.org/1999/xlink" x="0px" y="0px"
	 viewBox="0 0 178.353 244.11" style="enable-background:new 0 0 178.353 244.11;" xml:space="preserve">
<g>
	<g>
		<path style="fill:#FFFFFF;" d="M11.189,231.279c20.667-35.867,41.333-71.735,62-107.602c-0.648,0-1.295,0-1.943,0
			c16.333,32.833,32.667,65.667,49,98.5c0.646,1.299,2.587,0.159,1.943-1.136c-16.333-32.833-32.667-65.667-49-98.5
			c-0.382-0.768-1.542-0.696-1.943,0c-20.667,35.867-41.333,71.735-62,107.602C8.521,231.403,10.466,232.536,11.189,231.279
			L11.189,231.279z"/>
	</g>
</g>
<g>
	<g>
		<path style="fill:#FFFFFF;" d="M71.093,106.61c0,45.68,0,91.359,0,137.039c0,0.154,0,0.307,0,0.461c0,1.451,2.25,1.451,2.25,0
			c0-45.68,0-91.359,0-137.039c0-0.154,0-0.307,0-0.461C73.343,105.159,71.093,105.159,71.093,106.61L71.093,106.61z"/>
	</g>
</g>
<g>
	<g>
		<path style="fill:#FFFFFF;" d="M125.74,57.034c-4.635-8.61-16.226-15.462-25.931-10.834c-3.252,1.551-6.498,3.103-9.733,4.696
			c-13.559,6.678-27.117,13.357-40.676,20.035c-5.769,2.842-11.538,5.683-17.307,8.525c-3.814,1.879-7.473,3.553-10.611,6.54
			c-7.019,6.681-7.678,17.516-3.283,25.724c4.551,8.498,14.85,11.958,23.869,9.931c6.053-1.361,12.179-5.52,17.654-8.216
			c10.823-5.331,21.645-10.661,32.468-15.992c7.668-3.777,15.337-7.554,23.005-11.331C126.246,80.667,130.828,68.316,125.74,57.034
			c-0.596-1.321-2.534-0.176-1.943,1.136c4.535,10.054,0.261,21.073-9.523,25.893c-4.039,1.99-8.078,3.979-12.117,5.968
			c-14.031,6.911-28.061,13.822-42.092,20.732c-4.531,2.232-9.061,4.463-13.592,6.695c-8.383,4.129-17.536,3.108-24.14-3.83
			c-8.789-9.234-4.654-24.57,6.198-29.915c3.508-1.728,7.017-3.456,10.525-5.184c14.212-7,28.425-14.001,42.637-21.001
			c4.942-2.434,9.885-4.869,14.827-7.303c1.86-0.916,3.721-1.814,5.684-2.509c8.437-2.988,17.738,3.295,21.593,10.455
			C124.485,59.447,126.427,58.311,125.74,57.034z"/>
	</g>
</g>
<g>
	<g>
		<g>
			<path style="fill:#FFFFFF;" d="M132.093,16.11c0,7.333,0,14.667,0,22c0,1.451,2.25,1.451,2.25,0c0-7.333,0-14.667,0-22
				C134.343,14.659,132.093,14.659,132.093,16.11L132.093,16.11z"/>
		</g>
	</g>
	<g>
		<g>
			<path style="fill:#FFFFFF;" d="M143.718,25.485c-7.333,0-14.667,0-22,0c-1.451,0-1.451,2.25,0,2.25c7.333,0,14.667,0,22,0
				C145.169,27.735,145.169,25.485,143.718,25.485L143.718,25.485z"/>
		</g>
	</g>
	<g>
		<g>
			<path style="fill:#FFFFFF;" d="M135.889,22.91c-2.343,2.343-4.685,4.685-7.028,7.028c-1.027,1.027,0.564,2.618,1.591,1.591
				c2.343-2.343,4.685-4.685,7.028-7.028C138.507,23.474,136.916,21.883,135.889,22.91L135.889,22.91z"/>
		</g>
	</g>
	<g>
		<g>
			<path style="fill:#FFFFFF;" d="M137.079,29.938c-2.343-2.343-4.685-4.685-7.028-7.028c-1.027-1.027-2.618,0.564-1.591,1.591
				c2.343,2.343,4.685,4.685,7.028,7.028C136.515,32.556,138.106,30.965,137.079,29.938L137.079,29.938z"/>
		</g>
	</g>
</g>
<g>
	<g>
		<g>
			<path style="fill:#FFFFFF;" d="M168.34,58.93c-3.492,9.371-6.984,18.741-10.476,28.112c-0.508,1.362,1.668,1.945,2.17,0.598
				c3.492-9.371,6.984-18.741,10.476-28.112C171.017,58.165,168.842,57.583,168.34,58.93L168.34,58.93z"/>
		</g>
	</g>
	<g>
		<g>
			<path style="fill:#FFFFFF;" d="M178.248,76.794c-9.37-3.492-18.741-6.984-28.112-10.476c-1.362-0.508-1.945,1.668-0.598,2.17
				c9.371,3.492,18.741,6.984,28.112,10.476C179.012,79.472,179.594,77.296,178.248,76.794L178.248,76.794z"/>
		</g>
	</g>
	<g>
		<g>
			<path style="fill:#FFFFFF;" d="M169.881,69.656c-4.095,1.872-8.191,3.744-12.286,5.615c-1.318,0.602-0.174,2.541,1.136,1.943
				c4.095-1.872,8.191-3.744,12.286-5.615C172.335,70.997,171.191,69.058,169.881,69.656L169.881,69.656z"/>
		</g>
	</g>
	<g>
		<g>
			<path style="fill:#FFFFFF;" d="M167.574,78.82c-1.872-4.095-3.744-8.191-5.615-12.286c-0.602-1.318-2.541-0.174-1.943,1.136
				c1.872,4.095,3.744,8.191,5.615,12.286C166.234,81.274,168.173,80.13,167.574,78.82L167.574,78.82z"/>
		</g>
	</g>
</g>
<g>
	<g>
		<path style="fill:#FFFFFF;" d="M122.171,56.206c4.748,8.07,4.401,18.622-3.802,24.304c-8.181,5.667-18.684,0.411-23.62-6.85
			c-5.261-7.739-4.03-18.88,3.802-24.304C106.732,43.689,117.236,48.945,122.171,56.206c0.81,1.192,2.761,0.068,1.943-1.136
			c-5.979-8.797-16.973-13.264-26.698-7.657c-9.698,5.592-9.662,18.794-4.609,27.383c5.391,9.162,17.413,13.011,26.698,7.657
			c9.698-5.592,9.662-18.794,4.609-27.383C123.379,53.821,121.433,54.952,122.171,56.206z"/>
	</g>
</g>
</svg>
