<?xml version="1.0" encoding="iso-8859-1"?>
<!-- Generator: Adobe Illustrator 18.0.0, SVG Export Plug-In . SVG Version: 6.00 Build 0)  -->
<!DOCTYPE svg PUBLIC "-//W3C//DTD SVG 1.1//EN" "http://www.w3.org/Graphics/SVG/1.1/DTD/svg11.dtd">
<svg version="1.1" id="Layer_1" xmlns="http://www.w3.org/2000/svg" xmlns:xlink="http://www.w3.org/1999/xlink" x="0px" y="0px"
	 viewBox="0 0 460.477 255.105" style="enable-background:new 0 0 460.477 255.105;" xml:space="preserve">
<g>
	<g>
		<path style="fill:#FFFFFF;" d="M452.989,202.589c-32.277,0-64.553,0-96.83,0c-64.082,0-128.165,0-192.247,0
			c-46.767,0-93.535,0-140.302,0c-3.311,0-6.622,0-9.933,0c0.375,0.375,0.75,0.75,1.125,1.125c0-25.333,0-50.667,0-76
			c-0.375,0.375-0.75,0.75-1.125,1.125c32.277,0,64.553,0,96.83,0c64.082,0,128.165,0,192.247,0c46.767,0,93.535,0,140.302,0
			c3.311,0,6.622,0,9.933,0c-0.375-0.375-0.75-0.75-1.125-1.125c0,25.333,0,50.667,0,76c0,1.451,2.25,1.451,2.25,0
			c0-25.333,0-50.667,0-76c0-0.613-0.512-1.125-1.125-1.125c-32.277,0-64.553,0-96.83,0c-64.082,0-128.165,0-192.247,0
			c-46.767,0-93.535,0-140.302,0c-3.311,0-6.622,0-9.933,0c-0.613,0-1.125,0.512-1.125,1.125c0,25.333,0,50.667,0,76
			c0,0.613,0.512,1.125,1.125,1.125c32.277,0,64.553,0,96.83,0c64.082,0,128.165,0,192.247,0c46.767,0,93.535,0,140.302,0
			c3.311,0,6.622,0,9.933,0C454.44,204.839,454.44,202.589,452.989,202.589z"/>
	</g>
</g>
<g>
	<g>
		<path style="fill:#FFFFFF;" d="M14.852,128.634c0.774-25.703,21.001-46.477,46.705-47.822
			c26.609-1.392,49.05,20.238,50.587,46.355c0.085,1.442,2.335,1.45,2.25,0c-1.61-27.342-24.06-48.566-51.452-48.639
			c-27.5-0.073-49.529,23.189-50.34,50.106C12.558,130.086,14.809,130.081,14.852,128.634L14.852,128.634z"/>
	</g>
</g>
<g>
	<g>
		<path style="fill:#FFFFFF;" d="M54.383,235.452c-2.342,0-4.684,0-7.026,0c0.375,0.375,0.75,0.75,1.125,1.125
			c0-10.954,0-21.909,0-32.863c-0.375,0.375-0.75,0.75-1.125,1.125c2.342,0,4.684,0,7.026,0c-0.375-0.375-0.75-0.75-1.125-1.125
			c0,10.954,0,21.909,0,32.863c0,1.451,2.25,1.451,2.25,0c0-10.954,0-21.909,0-32.863c0-0.613-0.512-1.125-1.125-1.125
			c-2.342,0-4.684,0-7.026,0c-0.613,0-1.125,0.512-1.125,1.125c0,10.954,0,21.909,0,32.863c0,0.613,0.512,1.125,1.125,1.125
			c2.342,0,4.684,0,7.026,0C55.834,237.702,55.834,235.452,54.383,235.452z"/>
	</g>
</g>
<g>
	<g>
		<path style="fill:#FFFFFF;" d="M401.87,235.452c-2.342,0-4.684,0-7.026,0c0.375,0.375,0.75,0.75,1.125,1.125
			c0-10.954,0-21.909,0-32.863c-0.375,0.375-0.75,0.75-1.125,1.125c2.342,0,4.684,0,7.026,0c-0.375-0.375-0.75-0.75-1.125-1.125
			c0,10.954,0,21.909,0,32.863c0,1.451,2.25,1.451,2.25,0c0-10.954,0-21.909,0-32.863c0-0.613-0.512-1.125-1.125-1.125
			c-2.342,0-4.684,0-7.026,0c-0.613,0-1.125,0.512-1.125,1.125c0,10.954,0,21.909,0,32.863c0,0.613,0.512,1.125,1.125,1.125
			c2.342,0,4.684,0,7.026,0C403.321,237.702,403.321,235.452,401.87,235.452z"/>
	</g>
</g>
<g>
	<g>
		<path style="fill:#FFFFFF;" d="M114.674,67.005c-19.197,3.979-38.393,7.959-57.59,11.938c-1.42,0.294-0.818,2.463,0.598,2.17
			c19.197-3.979,38.393-7.959,57.59-11.938C116.692,68.88,116.089,66.711,114.674,67.005L114.674,67.005z"/>
	</g>
</g>
<g>
	<g>
		<path style="fill:#FFFFFF;" d="M454.395,128.634c-0.812-26.967-22.006-48.662-48.955-50.072
			c-27.88-1.458-51.231,21.319-52.837,48.605c-0.085,1.45,2.165,1.442,2.25,0c1.538-26.121,23.083-46.319,49.202-46.389
			c26.256-0.07,47.316,22.152,48.09,47.856C452.188,130.081,454.438,130.086,454.395,128.634L454.395,128.634z"/>
	</g>
</g>
<g>
	<g>
		<path style="fill:#FFFFFF;" d="M353.785,69.174c18.51,3.979,37.02,7.959,55.53,11.938c1.415,0.304,2.016-1.865,0.598-2.17
			c-18.51-3.979-37.02-7.959-55.53-11.938C352.968,66.7,352.367,68.869,353.785,69.174L353.785,69.174z"/>
	</g>
</g>
<g>
	<g>
		<g>
			<path style="fill:#FFFFFF;" d="M127.447,66.964c-4.158,0-8.316,0-12.474,0c-0.613,0-1.125,0.512-1.125,1.125
				c0,19.698,0,39.396,0,59.094c0,0.613,0.512,1.125,1.125,1.125c4.152,0,8.303,0,12.455,0c0.613,0,1.125-0.512,1.125-1.125
				c0.006-19.698,0.013-39.396,0.019-59.094c0-1.451-2.25-1.451-2.25,0c-0.006,19.698-0.013,39.396-0.019,59.094
				c0.375-0.375,0.75-0.75,1.125-1.125c-4.152,0-8.303,0-12.455,0c0.375,0.375,0.75,0.75,1.125,1.125c0-19.698,0-39.396,0-59.094
				c-0.375,0.375-0.75,0.75-1.125,1.125c4.158,0,8.316,0,12.474,0C128.898,69.214,128.898,66.964,127.447,66.964z"/>
		</g>
	</g>
	<g>
		<g>
			<path style="fill:#FFFFFF;" d="M204.161,68.089c-0.006,19.698-0.013,39.396-0.019,59.094c0,0.613,0.512,1.125,1.125,1.125
				c48.019,0,96.039,0,144.058,0c1.471,0,2.942,0,4.412,0c0.613,0,1.125-0.512,1.125-1.125c0-19.698,0-39.396,0-59.094
				c0-0.613-0.512-1.125-1.125-1.125c-48.013,0-96.026,0-144.039,0c-1.471,0-2.941,0-4.412,0c-1.451,0-1.451,2.25,0,2.25
				c48.013,0,96.026,0,144.039,0c1.471,0,2.941,0,4.412,0c-0.375-0.375-0.75-0.75-1.125-1.125c0,19.698,0,39.396,0,59.094
				c0.375-0.375,0.75-0.75,1.125-1.125c-48.019,0-96.039,0-144.058,0c-1.471,0-2.942,0-4.412,0c0.375,0.375,0.75,0.75,1.125,1.125
				c0.006-19.698,0.013-39.396,0.019-59.094C206.411,66.639,204.161,66.639,204.161,68.089z"/>
		</g>
	</g>
</g>
<g>
	<g>
		<path style="fill:#FFFFFF;" d="M193.138,60.829c-17.722,18.732-35.445,37.465-53.167,56.197c-0.996,1.053,0.592,2.647,1.591,1.591
			c17.722-18.732,35.445-37.465,53.167-56.197C195.726,61.367,194.137,59.773,193.138,60.829L193.138,60.829z"/>
	</g>
</g>
<g>
	<g>
		<path style="fill:#FFFFFF;" d="M136.465,62.917c7.719,6.618,15.439,13.235,23.158,19.853c1.095,0.939,2.694-0.645,1.591-1.591
			c-7.719-6.618-15.439-13.235-23.158-19.853C136.961,60.387,135.362,61.971,136.465,62.917L136.465,62.917z"/>
	</g>
</g>
<g>
	<g>
		<path style="fill:#FFFFFF;" d="M171.162,97.226c7.719,6.618,15.439,13.235,23.158,19.853c1.095,0.939,2.694-0.645,1.591-1.591
			c-7.719-6.618-15.439-13.235-23.158-19.853C171.658,94.696,170.059,96.28,171.162,97.226L171.162,97.226z"/>
	</g>
</g>
<g>
	<g>
		<path style="fill:#FFFFFF;" d="M128.982,73.714c0-8.5,0-17,0-25.5c-0.375,0.375-0.75,0.75-1.125,1.125c25.583,0,51.167,0,76.75,0
			c-0.375-0.375-0.75-0.75-1.125-1.125c0.22,11.583,0.44,23.167,0.66,34.75c0.028,1.449,2.278,1.452,2.25,0
			c-0.22-11.583-0.44-23.167-0.66-34.75c-0.012-0.613-0.503-1.125-1.125-1.125c-25.583,0-51.167,0-76.75,0
			c-0.613,0-1.125,0.512-1.125,1.125c0,8.5,0,17,0,25.5C126.732,75.165,128.982,75.165,128.982,73.714L128.982,73.714z"/>
	</g>
</g>
<g>
	<g>
		<path style="fill:#FFFFFF;" d="M126.732,66.714c0,20,0,40,0,60c0,1.451,2.25,1.451,2.25,0c0-20,0-40,0-60
			C128.982,65.263,126.732,65.263,126.732,66.714L126.732,66.714z"/>
	</g>
</g>
</svg>
