<?xml version="1.0" encoding="UTF-8" standalone="no"?>
<svg width="221px" height="221px" viewBox="0 0 221 221" version="1.1" xmlns="http://www.w3.org/2000/svg" xmlns:xlink="http://www.w3.org/1999/xlink" xmlns:sketch="http://www.bohemiancoding.com/sketch/ns">
    <!-- Generator: Sketch 3.3 (11970) - http://www.bohemiancoding.com/sketch -->
    <title>forward</title>
    <desc>Created with Sketch.</desc>
    <defs></defs>
    <g id="Page-1" stroke="none" stroke-width="1" fill="none" fill-rule="evenodd" sketch:type="MSPage">
        <g id="forward" sketch:type="MSArtboardGroup" fill="#000000">
            <path d="M75.6362519,110.500001 C75.6362524,109.079036 75.6362514,109.068604 84.4052551,100.206211 C111.955882,73.2067636 139.50651,45.5593297 167.056129,18.2368892 C167.471546,17.8248976 167.886963,17.4129061 168.30238,17.0009145 C177.50508,7.87410137 163.245786,-6.26760907 154.043086,2.85920405 C120.638303,35.9885257 87.23352,69.1178473 53.8287372,102.247169 C53.4133201,102.659161 52.9979029,103.071152 52.5824857,103.483144 C49.9377304,106.10609 49.2379743,109.141028 49.7915277,111.920971 C50.0335183,113.837932 50.9298918,115.769892 52.6913815,117.516856 C86.0961643,150.646178 119.500947,183.7755 152.90573,216.904821 C153.321147,217.316813 153.736564,217.728804 154.151981,218.140796 C163.354681,227.267609 177.613976,213.125899 168.411276,203.999086 C140.248614,176.068657 112.085952,148.207228 83.9232905,120.207801 C75.6362514,111.920967 75.6362514,111.920967 75.6362519,110.500001 Z" id="Shape" sketch:type="MSShapeGroup" transform="translate(110.500000, 110.500000) scale(-1, 1) translate(-110.500000, -110.500000) "></path>
        </g>
    </g>
</svg>