<?xml version="1.0" encoding="iso-8859-1"?>
<!-- Generator: Adobe Illustrator 18.0.0, SVG Export Plug-In . SVG Version: 6.00 Build 0)  -->
<!DOCTYPE svg PUBLIC "-//W3C//DTD SVG 1.1//EN" "http://www.w3.org/Graphics/SVG/1.1/DTD/svg11.dtd">
<svg version="1.1" id="Layer_1" xmlns="http://www.w3.org/2000/svg" xmlns:xlink="http://www.w3.org/1999/xlink" x="0px" y="0px"
	 viewBox="0 0 349.621 255.105" style="enable-background:new 0 0 349.621 255.105;" xml:space="preserve">
<g>
	<g>
		<path style="fill:#FFFFFF;" d="M343.047,158.076c-38.738,0-77.476,0-116.214,0c-60.775,0-121.55,0-182.324,0
			c-12.711,0-25.423,0-38.134,0c0.375,0.375,0.75,0.75,1.125,1.125c0-5.499,0-10.998,0-16.496c-0.375,0.375-0.75,0.75-1.125,1.125
			c38.738,0,77.476,0,116.214,0c60.775,0,121.55,0,182.324,0c12.711,0,25.423,0,38.134,0c-0.375-0.375-0.75-0.75-1.125-1.125
			c0,5.499,0,10.998,0,16.496c0,1.451,2.25,1.451,2.25,0c0-5.499,0-10.998,0-16.496c0-0.613-0.512-1.125-1.125-1.125
			c-38.738,0-77.476,0-116.214,0c-60.775,0-121.55,0-182.324,0c-12.711,0-25.423,0-38.134,0c-0.613,0-1.125,0.512-1.125,1.125
			c0,5.499,0,10.998,0,16.496c0,0.613,0.512,1.125,1.125,1.125c38.738,0,77.476,0,116.214,0c60.775,0,121.55,0,182.324,0
			c12.711,0,25.423,0,38.134,0C344.498,160.326,344.498,158.076,343.047,158.076z"/>
	</g>
</g>
<g>
	<g>
		<path style="fill:#FFFFFF;" d="M278.27,111.356c-10.351,0-8.659-12.051-8.659-18.902c0-7.555-2.198-20.145,8.659-20.882
			c10.327-0.701,8.659,12.474,8.659,18.902C286.929,98.029,289.127,110.62,278.27,111.356c-1.44,0.098-1.449,2.348,0,2.25
			c12.379-0.84,10.909-13.15,10.909-22.142c0-8.404,1.49-22.142-10.909-22.142s-10.909,13.737-10.909,22.142
			c0,8.404-1.49,22.142,10.909,22.142C279.721,113.606,279.721,111.356,278.27,111.356z"/>
	</g>
</g>
<g>
	<g>
		<g>
			<path style="fill:#FFFFFF;" d="M284.477,41.024c0-11.471,0-22.943,0-34.414c0-0.613-0.512-1.125-1.125-1.125c-3,0-6,0-9,0
				c-0.613,0-1.125,0.512-1.125,1.125c0,11.457,0,22.914,0,34.37c0-1.946-8.418,4.879-9.171,5.815
				c-2.585,3.217-3.829,7.524-3.829,11.61c0,3.043,0,6.086,0,9.129c0,25.02,0,50.04,0,75.06c0,0.005,0,0.01,0,0.016
				c0,0.613,0.512,1.125,1.125,1.125c11.667,0,23.333,0,35,0c0.613,0,1.125-0.512,1.125-1.125c0-17.486,0-34.973,0-52.459
				c0-9.362,0-18.725,0-28.087c0-9.929-3.724-18.571-13.826-22.124c-1.372-0.483-1.957,1.692-0.598,2.17
				c7.133,2.509,12.174,8.984,12.174,16.663c0,2.108,0,4.217,0,6.325c0,9.654,0,19.307,0,28.961c0,16.184,0,32.369,0,48.553
				c0.375-0.375,0.75-0.75,1.125-1.125c-11.667,0-23.333,0-35,0c0.375,0.375,0.75,0.75,1.125,1.125c0-16.184,0-32.369,0-48.553
				c0-9.654,0-19.307,0-28.961c0-2.108,0-4.217,0-6.325c0-7.903,4.706-14.133,12.174-16.557c0.479-0.156,0.826-0.567,0.826-1.085
				c0-11.507,0-23.013,0-34.52c-0.375,0.375-0.75,0.75-1.125,1.125c3,0,6,0,9,0c-0.375-0.375-0.75-0.75-1.125-1.125
				c0,11.471,0,22.943,0,34.414C282.227,42.475,284.477,42.475,284.477,41.024z"/>
		</g>
	</g>
	<g>
		<g>
			<path style="fill:#FFFFFF;" d="M297.768,61.735c0.246,0,0.491,0,0.737,0c1.451,0,1.451-2.25,0-2.25c-0.246,0-0.491,0-0.737,0
				C296.318,59.485,296.318,61.735,297.768,61.735c0.246,0,0.491,0,0.737,0c1.451,0,1.451-2.25,0-2.25c-0.246,0-0.491,0-0.737,0
				C296.318,59.485,296.318,61.735,297.768,61.735z"/>
		</g>
	</g>
</g>
<g>
	<g>
		<path style="fill:#FFFFFF;" d="M234.477,135.05c0-2.88,0-5.759,0-8.639c0-2.101,0-4.202,0-6.303c0-2.911-0.375-1.261,1.759-1.829
			c10.748-2.862,14.602-15.341,10.176-24.691c-0.166-0.351-0.601-0.555-0.971-0.557c-9.439-0.06-18.877-0.12-28.316-0.179
			c-0.371-0.002-0.804,0.21-0.971,0.557c-4.661,9.654-0.758,20.565,9.199,24.598c2.145,0.869,1.874-1.084,1.874,1.833
			c0,2.006,0,4.011,0,6.017c0,3.059,0,6.118,0,9.177c0.375-0.375,0.75-0.75,1.125-1.125c-2.269,0.211-11.202,0.853-10.189,5.199
			c1.126,4.829,10.623,4.648,14.226,4.721c3.411,0.069,11.914-0.066,12.742-4.721c0.793-4.457-9.394-4.96-11.779-5.183
			c-1.445-0.135-1.432,2.116,0,2.25c3.053,0.286,6.194,0.637,8.951,2.082c1.8,0.944-2.584,2.481-2.814,2.551
			c-1.736,0.526-3.585,0.62-5.382,0.736c-3.566,0.23-7.197-0.171-10.647-1.065c-2.366-0.613-3.24-2.39-0.606-3.374
			c1.701-0.636,3.742-0.782,5.498-0.945c0.61-0.057,1.125-0.469,1.125-1.125c0-5.796,0-11.593,0-17.389
			c0-0.482-0.341-0.975-0.826-1.085c-5.49-1.238-9.533-4.454-11.511-9.785c-0.677-1.824-1.514-11.684,0.674-11.67
			c4.654,0.029,9.308,0.059,13.962,0.088c4.423,0.028,8.847,0.056,13.27,0.084c0.71,0.004,0.678,2.813,0.868,3.596
			c0.803,3.309,0.003,6.869-1.424,9.866c-2.153,4.521-6.703,7.083-11.438,7.948c-0.486,0.089-0.826,0.618-0.826,1.085
			c0,5.759,0,11.518,0,17.278C232.227,136.501,234.477,136.501,234.477,135.05z"/>
	</g>
</g>
<g>
	<g>
		<path style="fill:#FFFFFF;" d="M308.959,242.598c-5.016,0-10.032,0-15.047,0c0.375,0.375,0.75,0.75,1.125,1.125
			c0-28.193,0-56.385,0-84.578c-0.375,0.375-0.75,0.75-1.125,1.125c5.016,0,10.032,0,15.047,0c-0.375-0.375-0.75-0.75-1.125-1.125
			c0,28.193,0,56.385,0,84.578c0,1.451,2.25,1.451,2.25,0c0-28.193,0-56.385,0-84.578c0-0.613-0.512-1.125-1.125-1.125
			c-5.016,0-10.032,0-15.047,0c-0.613,0-1.125,0.512-1.125,1.125c0,28.193,0,56.385,0,84.578c0,0.613,0.512,1.125,1.125,1.125
			c5.016,0,10.032,0,15.047,0C310.41,244.848,310.41,242.598,308.959,242.598z"/>
	</g>
</g>
<g>
	<g>
		<path style="fill:#FFFFFF;" d="M57.733,242.598c-5.016,0-10.032,0-15.047,0c0.375,0.375,0.75,0.75,1.125,1.125
			c0-28.193,0-56.385,0-84.578c-0.375,0.375-0.75,0.75-1.125,1.125c5.016,0,10.032,0,15.047,0c-0.375-0.375-0.75-0.75-1.125-1.125
			c0,28.193,0,56.385,0,84.578c0,1.451,2.25,1.451,2.25,0c0-28.193,0-56.385,0-84.578c0-0.613-0.512-1.125-1.125-1.125
			c-5.016,0-10.032,0-15.047,0c-0.613,0-1.125,0.512-1.125,1.125c0,28.193,0,56.385,0,84.578c0,0.613,0.512,1.125,1.125,1.125
			c5.016,0,10.032,0,15.047,0C59.184,244.848,59.184,242.598,57.733,242.598z"/>
	</g>
</g>
</svg>
